<svg id="图层_1" data-name="图层 1" xmlns="http://www.w3.org/2000/svg" viewBox="0 0 130 130"><defs><style>.cls-1{fill:#a5a5a5;}.cls-2{fill:none;}.cls-3{fill:#319999;}.cls-4{fill:#d66c72;}.cls-5{fill:#2e9390;}.cls-6{fill:#2e9592;}</style></defs><title>project_logo</title><polygon class="cls-1" points="56.61 51.1 56.61 83.44 90.08 67.27 56.61 51.1"/><polygon class="cls-2" points="76.98 43.69 88.53 24 88.53 24 76.71 44.15 76.98 43.69"/><path class="cls-2" d="M59,89.83,96,71.91a4.22,4.22,0,0,1,3.64,0L111,77.38V70.27l-26.85-13a1.32,1.32,0,0,1-.89-1.18l-.39-7.43a4.1,4.1,0,0,1,.54-2.58L96.36,24H92.1L77.27,49.28l-.18.31a4.18,4.18,0,0,1-5.43,1.66l-1.32-.64-.1,0L28.1,30.18a9.92,9.92,0,0,0-.79,3.87v2.89l20.23,9.78a4.17,4.17,0,0,1,2.36,3.76V86.74a4.17,4.17,0,0,1-2.36,3.77l-19.91,9.62a10,10,0,0,0,2,3.89L46.31,96a2.5,2.5,0,0,1,3.35,1.16,2.46,2.46,0,0,1,.25,1.1v9.46H56.6V93.51A4.12,4.12,0,0,1,59,89.83Z"/><path class="cls-3" d="M49.92,86.74V81a4.2,4.2,0,0,1-2.36,3.72L27.33,94.46v3.15a10.23,10.23,0,0,0,.31,2.52L47.55,90.5A4.2,4.2,0,0,0,49.92,86.74Z"/><path class="cls-4" d="M47.55,52.42a4.19,4.19,0,0,1,2.36,3.77V50.48a4.19,4.19,0,0,0-2.36-3.76L27.31,36.94v5.71Z"/><path class="cls-4" d="M47.55,52.42,27.33,42.65V94.46l20.23-9.77A4.2,4.2,0,0,0,49.92,81V56.19A4.18,4.18,0,0,0,47.55,52.42Z"/><path class="cls-4" d="M46.31,96,29.62,104a10,10,0,0,0,7.75,3.65H49.91V98.21A2.51,2.51,0,0,0,47.4,95.7h0A2.42,2.42,0,0,0,46.31,96Z"/><path class="cls-4" d="M111,97.62V77.38L99.67,71.91a4.22,4.22,0,0,0-3.64,0L59,89.83a4.15,4.15,0,0,0-2.36,3.7v14.16h44.35a10,10,0,0,0,10-10Z"/><path class="cls-3" d="M85.2,52a4.19,4.19,0,0,1-2.33-3.3l.39,7.43a1.32,1.32,0,0,0,.89,1.18l26.85,13V64.43Z"/><path class="cls-4" d="M82.87,48.67v-.05a2,2,0,0,1,.26-1.3L96.79,24h-.43l-13,22.09A4.09,4.09,0,0,0,82.87,48.67Z"/><path class="cls-4" d="M85.2,52,111,64.43V34.05a10.05,10.05,0,0,0-10-10H96.79L83.12,47.32a2.08,2.08,0,0,0-.26,1.31v0A4.22,4.22,0,0,0,85.2,52Z"/><polygon class="cls-5" points="76.98 43.69 77.28 49.27 92.09 24 88.53 24 76.98 43.69"/><path class="cls-3" d="M70,45.16,31,26.31a10.07,10.07,0,0,0-2.87,3.87L70.25,50.55Z"/><path class="cls-6" d="M76.72,44.15a4.19,4.19,0,0,1-5.43,1.65L70,45.16l.28,5.39.1.05,1.32.64a4.18,4.18,0,0,0,5.43-1.65l.18-.31L77,43.67Z"/><path class="cls-4" d="M74.86,45.83a4.14,4.14,0,0,0,1.86-1.68L88.52,24H37.38A10.06,10.06,0,0,0,31,26.31L70,45.16l1.33.64A4.15,4.15,0,0,0,74.86,45.83Z"/></svg>