<svg id="图层_1" data-name="图层 1" xmlns="http://www.w3.org/2000/svg" viewBox="0 0 130 130"><title>project_logo</title><path d="M24.91,24.86l.77-.19,3.93-.53c.43,0,2.31-.43,2.69-.52l1.25-.72c.29,0,.33,0,.48-.1s1.58.34,2,.43a14.16,14.16,0,0,0,1.63,1.06,1,1,0,0,1,.34.62A2,2,0,0,1,37.34,26c-.67.76-1,.86-3.65,1.48a34.17,34.17,0,0,0-4.8.82c-.43.19-2.88.62-3,.67a22.78,22.78,0,0,1-2.55.72,7,7,0,0,1-2.25-.81l-2.74-1.54a5.85,5.85,0,0,1-1.87-1.78c.14-.24.24-.33.43-.33.38,0,1.92.38,2.26.38s1.15-.24,1.39-.24h.19ZM18.76,42.43c.53-.09.68-.14.82-.14s1.25.24,1.44.24A10.72,10.72,0,0,0,22.6,43c.24,0,.53-.09.72-.09l3.56-.68c.86-.14,2.25-.38,2.83-.43,1.54-.19,1.68-.19,2.25-.91A29.66,29.66,0,0,1,36.62,42c1.44.87,1.78,1.06,1.78,2.59a3.49,3.49,0,0,1-.72,1.2c-.1.1-.72.44-.77.58s-1.3,3.46-1.3,3.55,0,.19.34.72a3.81,3.81,0,0,1,.14.72,5,5,0,0,1-.48,1.73,2.28,2.28,0,0,1-1.24.38,7.79,7.79,0,0,0-1.4.15l-5.28,1-.14.14c0,.67-1,2.5-1.78,2.5-1.68,0-2.78-1.88-3.12-2.45-.14-.19-.48-1.15-.57-1.3a17.53,17.53,0,0,0-.39-1.87c0-.1,0-.58,0-.67a18.64,18.64,0,0,0-.38-1.92c-.44-3.31-.48-3.75-1.35-4.85a7,7,0,0,0-1.25-.72c-.67-.14-.72-.19-1-.43.15-.24.24-.29,1-.34ZM21,37.58a18.5,18.5,0,0,0,4.08-.43l3.22-.81c.38-.1,1.92-.58,2.25-.67a13.59,13.59,0,0,1,1.35-.29c.67,0,2.78,1.29,2.78,2,0,.92,0,1.06-.28,1.35a26.51,26.51,0,0,1-3.12,1c-.44.1-2.6.29-3.08.43a9.08,9.08,0,0,1-1.77.48,17.37,17.37,0,0,1-5.19-2.35l-.29-.48Zm.87-5.95A34.42,34.42,0,0,0,26,31.1L30,29.76l.82-.34.29-.28a10.31,10.31,0,0,1,1.87.19c1.44.86,1.63,1,1.78,1.39,0,.14.38.86.43,1a3.46,3.46,0,0,1-.24.91c-.24.1-1.3.63-1.54.72-.62.15-6.81,1.68-7.53,1.68-.39,0-.58-.09-2-.91a21.35,21.35,0,0,1-2.5-1.87c0-.1-.33-.63-.28-.72Zm1.82-16.94.19-.1a1.11,1.11,0,0,1,.67.24l.34-.09c.29,0,1,.33,1.2.38.62.38.77.48,1.25.43h4.46c1.2,0,1.3,0,2.88,1,.1,0,2.16,1.39,2.21,1.83a11.2,11.2,0,0,0,.1,1.29c-.48,1.44-.63,1.83-1.39,1.78l-.2.24c-.29,0-1.68.38-1.92.38a19.58,19.58,0,0,1-4.56-.72,18,18,0,0,1-1.68-.91,9.28,9.28,0,0,1-2.64-3.12c-.05-.14-.72-2.07-.91-2.45Zm6.77,30.67-.14-.09-3.94.91H26a.2.2,0,0,0-.19.19,12.38,12.38,0,0,0,.43,1.34c.24,2.07.34,2.74.82,3.27a5.9,5.9,0,0,1,2.4-.53,1.08,1.08,0,0,0,.87-1.06ZM49.1,32.06l1.54-.48.09-.19.77-4.13a21.12,21.12,0,0,0,.24-3,11.07,11.07,0,0,0-3.31.57c-.19.05-1.3.2-1.49.24-.48.15-3.69,1.44-4.41,1.64h-.15c-.53,0-3.55-3-4-3.56a2.51,2.51,0,0,1-.67-1.72,24.68,24.68,0,0,0,2.45.76,24.23,24.23,0,0,0,4.08-.48l4.41-1a26.67,26.67,0,0,0,2.88-.57,2.36,2.36,0,0,0,1-1.06c.19-.09,1-.57,1-.57,1,0,2.16.62,4,1.58.05.05.19.14,1.49,1.25.24.19,1.29.67,1.49.81a3.13,3.13,0,0,1,1,2.36,2.1,2.1,0,0,1-.1.67,6.31,6.31,0,0,0-1.39,1.15,3.35,3.35,0,0,0-1.54,1.54L56.78,31.3l.15.19c.77.19,1.63,1.73,1.63,1.92a3.7,3.7,0,0,1-.14.67,5.61,5.61,0,0,1-2.6,1.3,42.83,42.83,0,0,1-4.41.91c-.29.05-1.54.58-1.78.58-.72,0-.77,0-1.49,0-.14,0-1.29-.14-1.53-.14a1,1,0,0,0-.82.48c0,.09-.38,4.08-.38,4.13v1.73a1.37,1.37,0,0,0-.1.52l-.14,4.28c0,.09-.1.48-.1.67a3.82,3.82,0,0,0,.72,2,14.59,14.59,0,0,0,4.46.63c.53,0,5.81-.1,6.44-1.3,0-.14.24-1.87.28-2.21s.39-1.53.44-1.82a1.53,1.53,0,0,1-.1-.38c0-.24.24-1.35.24-1.54s.19-1.06.19-1.2a7.17,7.17,0,0,1,0-1.34c.05-.1,0-.29,0-.34a14.87,14.87,0,0,1,1.06,2.11c.09.15.57.77.62.87a8,8,0,0,0,1.78,3,2.38,2.38,0,0,0,.19.48c.53.53,2.4,2.55,2.45,3.12,0,.1.14,1.2.19,1.35a2.75,2.75,0,0,1-1,1.68l-.34,0-.09.15-1.2.67-4,1.35-1.68.28-4.32.34c-.62,0-6-.24-7.39-1.25-3-2.11-3.94-2.78-4.13-5.42-.09-.29-.53-2.64-.53-2.84v-3.6c0-.57,0-2.06,0-2.68l.24-5.29c0-.24,0-1.24,0-1.48,0-.92-.48-1.73-1.2-1.78-.38-.34-1.2-1-1.15-1.49.19,0,1-.33,1.05-.33a5.39,5.39,0,0,1,2.36.76,6.17,6.17,0,0,0,.91.24c1.49.68,1.63.77,1.82,1,.34.49.67.87,1.2.87a.78.78,0,0,0,.43-.19Z"/><path d="M66.19,36.48l.14-.14c.58,0,.82,0,1-.24A26.06,26.06,0,0,0,69,29.86c0-.39,0-1.4-.24-1.64a7,7,0,0,1-.67-.67c0-.19.19-.24.29-.24.57,0,1.82.48,3.31,2a18.67,18.67,0,0,1,.81,3.22,1.75,1.75,0,0,1-.19.86l-.09,4s-.34,1.16-.39,1.35c-.38,3.12-.43,3.46-1.1,4.37-.48.57-.58.77-1,.91a2.53,2.53,0,0,1-.82.19c-1.92,0-2.49-3.89-2.59-4.85,0-.19-.58-.91-.53-1.05l.34-1.15ZM78.86,28c0,.67.1,1.06.1,1.35s0,1.1,0,1.15c0,.33-.15,1.82-.15,2.16a4.38,4.38,0,0,1,0,.81l-.28,5.14,0,.19-.05,5.09-.14,7.78s-.72,3.89-.82,4.08a9.75,9.75,0,0,1-.77,1.44,3.26,3.26,0,0,1-1.05.29c-1.4,0-3.32-5.24-3.32-6,0-.19,0-.48.29-.48a1,1,0,0,1,.43.15,9.12,9.12,0,0,0,.44-1.2l.48-4,.28-4.9c0-.05,0-1.39,0-1.59s.14-1.34.14-1.58l0-3.94,0-.72-.1-4.08,0-.43,0-5.95.1-3.94c0-.72-.1-.81-1-1.44a16.16,16.16,0,0,1-1.83-1.87,1.3,1.3,0,0,1,.92-.14A4.2,4.2,0,0,1,74,15a2.85,2.85,0,0,1,1.73.87c.34.43,2.59,1.49,2.93,1.82,1.25,1.3,1.63,1.68,1.63,2.45,0,.05-.34,1.2-.38,1.34a6.39,6.39,0,0,0-.1,1,10.89,10.89,0,0,0-.43,1.16c0,.19,0,1,0,1.15a9.66,9.66,0,0,0,1.15.29,5.14,5.14,0,0,1,2.4,1.34c.68.19.87,1,.87,1.58-.43,1-.82,1.83-1.88,1.83-.91,0-1.77-.53-2.88-1.78Zm2.06,23.28.1-.24c.29,0,.48.1.63-.09a14.67,14.67,0,0,0,.76-3.07,4.94,4.94,0,0,0-.57-2.12l.14-.14c.82.05.86.14,1.49.72L85,47.86a8.08,8.08,0,0,1,.43,1l.14.14c0,.19.24,1.25.24,1.39s0,.77,0,.82-.09.62-.09.77.09.67.09.72-.57,1.87-.67,2.21c0,.05-1.34,2.49-2.11,2.49a3.15,3.15,0,0,1-2.5-2.16A13.22,13.22,0,0,1,80,51.94c.44,0,.48,0,.53-.58ZM80,30.91a3.87,3.87,0,0,1,2.36-.57l1.48,0L88,29.76a.78.78,0,0,0,.48-.19,6.28,6.28,0,0,1-.67-2.88c-.05-.48-.1-.58-.67-.67a11.93,11.93,0,0,1-3.94-2.31c-.14-.09-.57-.67-.72-.72l-.29-.14V22.7c.34,0,1.83.2,2.12.2.52,0,2.64-.39,3.07-.44.24,0,4.94-.72,5-.72-.1-.28-.82-1.63-.82-1.77,0-.58,0-3.36-.28-3.6s-1.64-.91-1.88-1.11a1.83,1.83,0,0,1-.52-.67L89,14.5l-.15-.29.24-.15.2,0A1.43,1.43,0,0,1,90,14c.29,0,1.63.2,1.68.2s.72-.15.82-.15c.91,0,1,.1,2.3,1a17.16,17.16,0,0,1,3.12,2.12c.14.14.53,1.05.67,1.2v.24A2.08,2.08,0,0,0,98,20.16h-.1c-.19.48-.19.58-.14.82a2.87,2.87,0,0,0,2-.39,10.14,10.14,0,0,1,1.44-.38l.15-.29h.34l.19-.29a6.84,6.84,0,0,1,2.83.91,6,6,0,0,0,1.34.82c.48.72.53.82.53,1a1.31,1.31,0,0,1-.57,1,12.49,12.49,0,0,1-2.36.29,2.78,2.78,0,0,1-1.25.14,15.44,15.44,0,0,0-2.11.34v.09c1.35.72,2.16,1.15,2.16,1.92a4.16,4.16,0,0,1-1.25,1.73l.1.19c.77,0,1.82.1,2.45.1.14,0,.33-.1.57-.58.2,0,1.06-.14,1.25-.14A7.78,7.78,0,0,1,108,28.7c.43.24,1,.53,1.2,1,.1.15.34.82.43.92-.14.76-1.44,1.34-1.53,1.34H105.6l-3.94-.19c-.33,0-1.77-.1-2.06-.1s-1.2.19-1.44.19H97.05a5.53,5.53,0,0,1-.86.24,18.22,18.22,0,0,0-2.74.24l-4.75.58a17.29,17.29,0,0,0-1.77.43,9.67,9.67,0,0,1-1,.44,3.94,3.94,0,0,1-.82-.2L82,32.35A7.48,7.48,0,0,1,80,31Zm1.54,4.56a4.65,4.65,0,0,1,1.34-.29c.29,0,1.49.2,1.73.2a2.39,2.39,0,0,0,.77-.1l5.66-1.06.82-.09,6.86-.82,1.59-.14.1-.15c.33,0,.33-.14.38-.38,1-.1,1.34.15,2.83,1.25.15.14,1,.57,1.11.72,1.68,1.34,1.87,1.53,1.87,1.82a1.55,1.55,0,0,1-1,1.11c-.15.29-.15.29-.39.72s-.67,2.4-.91,2.73-.72,1.06-.77,1.25A4.09,4.09,0,0,1,101.71,45c2.07.24,6.43.67,6.43,3.07a2,2,0,0,1-.14.67c0,.14.1.29-.1.77a2.57,2.57,0,0,1-1.48.72c-1.49,0-2.93-2.07-3.37-2.69a7.6,7.6,0,0,0-2-2.21,2.7,2.7,0,0,1-.72.1c-.29,0-.34-.1-1-.53-.1,0-.48-.38-.67-.48a39.58,39.58,0,0,0-6.2.48c-.24.1-1.77.43-2.06.48a1.33,1.33,0,0,0-.72.14l-.34.05a4,4,0,0,0,1.54,1.68c.1.29.72,1.54.72,1.59.19,1.72.24,2.59,1.06,3.5.24.34,2.25.91,5.08.91.68,0,3.94-.43,4.13-.48l0-.14a19.51,19.51,0,0,0-1-4l.58.34c.05,0,.19,0,.28,0s.44.39.53.43l1.16.72c.14.1.52.63.62.68a.59.59,0,0,0,.24,0A3.66,3.66,0,0,0,107,52.51c.39.05.48.15,1.59.72a3,3,0,0,1,.28,1.06,9.56,9.56,0,0,0-.24,1.06c-.86,1.24-2.59,1.68-4.17,2a12,12,0,0,1-1.4.15c-.19,0-1.34,0-1.39,0a1.43,1.43,0,0,1-.28.05l-4.23-.24a10,10,0,0,1-6.48-2.21,7.9,7.9,0,0,1-2.5-4.32l-.09-3.93c0-1.2-.19-1.25-1.54-1.68a5.58,5.58,0,0,1-2.06-3.41l-.77-4.37c-.1-.67-.29-.77-.72-.86a2.74,2.74,0,0,1-.53-.58l-.86-.38Zm8.54,3.17,4.61-.81a6.35,6.35,0,0,0,.82-.1c.24,0,1.1-.43,1.29-.43a5.64,5.64,0,0,1,1.59.33h.91a4.46,4.46,0,0,0,.15-1.1,3.09,3.09,0,0,0-.15-.91,17.1,17.1,0,0,1-2.21.05c-.14,0-1.44.33-1.73.38-.57.09-3.36.33-3.93.43-.24.05-2.79.58-2.93.63l0,.09s.09.1.09.29a2.52,2.52,0,0,0,.29,1.3Zm-.57,4.23,4-.68a26.41,26.41,0,0,1,5.09-.48A4.29,4.29,0,0,0,99,39.5a19.38,19.38,0,0,0-2.44.63l-3.22.58c-.43.09-2.54.38-3,.38-.15,0-.82-.1-.92-.1a1.07,1.07,0,0,0-.09.34v1.44Zm3.74-13.93c.1,0,2.16-.24,2.4-.33A24.41,24.41,0,0,0,96.91,25c0-.19,0-.38-.29-.38s-1.34.28-1.58.28-3.94.53-3.94.92c0,.09.43.38.48.43a4.22,4.22,0,0,1,1.11,2.64A2.26,2.26,0,0,0,93.26,28.94Zm6,18.77.1.34c.33.24.33.38.33.48s-.14,1.78-.14,1.82c-.24.39-1,1.49-2,1.49-2.69,0-4-4.22-4-4.46a2.35,2.35,0,0,0-.15-1.15l.29-.15a.52.52,0,0,0,0-.48,13.47,13.47,0,0,1,3,1c.57.91.72,1.1,2.2,1.2Z"/><path d="M19.87,89.09c.53.09.53.14,1.05.57a4.73,4.73,0,0,0,.87.44,25.49,25.49,0,0,0,4.46-2c.24-.15,1.39-.63,1.54-.77a12.29,12.29,0,0,0,.86-2.54,1.82,1.82,0,0,1,.72-.1c.43.24,2.31,1.44,2.69,1.63l.72.77c.24.82.24.91.53,1.1.38,0,2.21-.48,2.26-.52.43,0,2.54-.44,3-.48l3.79-.58.77,0c.39,0,.43,0,.63-.24a4.23,4.23,0,0,1,0-.91c0-.19,0-.48-.34-.48a7.9,7.9,0,0,0-1.68.29,2.09,2.09,0,0,1-.81.24c-1,0-1.06,0-1.2.48s-1.25.81-1.35.81a3.07,3.07,0,0,1-2.83-2.11l-.91-4.13c0-.19-.19-.33-.34-.43a10.33,10.33,0,0,1-1.1-1c.09-.05,1.39-.43,1.68-.53a4.8,4.8,0,0,1,1.1,0,1.52,1.52,0,0,0,.72.19c.34,0,4.18-.63,4.61-.67a13.48,13.48,0,0,0,2.45-.39c0-.77-.15-2.59-.29-3.5a11.28,11.28,0,0,0-1.2-.87,2.44,2.44,0,0,1-.38-.43c-.1,0-.63-.19-.68-.24A12.78,12.78,0,0,1,40,71.61l.05-.09c.34,0,.43,0,.67-.14a6.19,6.19,0,0,1,1,0c.48,0,1.15-.53,1.68-.53,1.92,0,2.11,0,2.93.72a27.4,27.4,0,0,0,3.07,1.63,5.26,5.26,0,0,1,1.39,1.49,3.21,3.21,0,0,1-.24,1.2,6.65,6.65,0,0,0-.72,1.44.38.38,0,0,0,.24.1c.19,0,.87-.1,1-.1s1.3-.34,1.54-.38a1.15,1.15,0,0,0,.33-.58l.48-.38h.34l4.32,1.72a10,10,0,0,1,1.49.72,1.88,1.88,0,0,1,1,1.59c0,.53-.15.57-1.49,1.25a2,2,0,0,1-.53.67,1.36,1.36,0,0,0-.53,1c0,.09.1.62.1.67,0,.91-1.58.91-2.35.91-.19,0-5-.33-6-.33-.24,0-.53,0-1,.09,0,0-.39,1.78-.34,1.92L50.59,86l4.08-.2c.62,0,3.41-.76,4-.76a5.85,5.85,0,0,1,2.49,1.44,9.9,9.9,0,0,1,.29,1.44c0,.52-1.2.91-1.68,1h-.91l-.91-.24-4.32-.29h-.77c-.39,0-2.4.34-2.45.34-.77,0-1.68,0-2.16.1L45,89.09c-.19,0-1.1.29-1.25.29a27,27,0,0,0-5.56,1.1,8.64,8.64,0,0,0-.77.48.94.94,0,0,1-.53.1A17.1,17.1,0,0,1,32.83,90c-.24.91-.38,1.2-1,1.58l-.29.44c-.72.14-1.25,2.25-1.44,2.92-.1.39-.82,2-.86,2.31a3.45,3.45,0,0,0-.15,1c0,2.06,1.25,2.69,2.55,3.36.77.38,2.49,2.25,2.49,3a1.65,1.65,0,0,1-.48,1.11c-.09,0-2.06,1.15-2.3,1.24v.2c.24,0,1.25.28,1.49.28.91,0,1,0,1.58-.52s3.51-2.74,3.79-3.41a14.9,14.9,0,0,1-1.44-2.35c0-.24.39-1.11.39-1.25,0-.63.19-3.27.19-3.8V93.6c-.29-.34-.77-.86-1-1.15s-.34-.39-.38-.58a3.51,3.51,0,0,1,.77-.09c.24,0,1.29.14,1.53.14l1.78-.48,4-.77,6.24-.57c.38,0,.58,0,.72-.68a6.84,6.84,0,0,1,2.59.77c.24.15,1.3.39,1.49.48a5.69,5.69,0,0,1,2.4,2.21,1.91,1.91,0,0,1-.72,1.83,1.71,1.71,0,0,0-.14.62c0,.29.09,1.63.05,1.87a6.68,6.68,0,0,0-.24,1.54c0,.24,0,1.25,0,1.44a12.63,12.63,0,0,1-.38,1.58c-.38.24-.38.24-.91,1.11-.24.38-.87.81-1.11,1.15.48.29,2.6,1.58,2.83,1.82a2.68,2.68,0,0,1,.68,2c0,1.15-1.35,1.78-2.16,2.16a16.05,16.05,0,0,1-4.28-2.54c-.38-.44-2.3-2.21-2.64-2.64s-.76-.82-1.15-.82c-.09,0-1.44.29-1.73.29a8.76,8.76,0,0,0-2.44.38,1.4,1.4,0,0,1-.44.1,1.71,1.71,0,0,1-1.72,1.87c-.39,0-1.88.82-2.21.82s-.29.19-.24.19l6.24.86,1.53.15,3.27.57c.24,0,2.54.58,2.69.58.52,0,3.26.24,3.5.24s1.2-.1,1.39-.1a14.28,14.28,0,0,0,5-.67c.33-.1,2-.29,2.35-.38,0,.43-1.39,1.77-2.5,2.54-2.2,1.63-7,4.32-7.73,4.32a3.71,3.71,0,0,1-.86-.19c-.29-.1-1.44-.29-1.68-.34l-3.65-1L44.73,113l-4.36-1a38,38,0,0,0-4-.38c-.24,0-1.29-.15-1.49-.19l-4.46-.39a11.25,11.25,0,0,0-1.39-.05c-.34,0-1.73-.19-2.07-.19a4.48,4.48,0,0,0-1.87.39,4.15,4.15,0,0,1-1.87.57c-.48,0-1.68,0-3.6-1.58-.38-.34-1.06-1-1.06-3.12a1.3,1.3,0,0,1,.15-.63c.19,0,.24,0,.33.1.87.58,1,.67,1.25.67,1,0,5.28-.29,6.15-.29a3.83,3.83,0,0,0,1.48-2.68c0-.53-.19-.68-1.87-2A5.19,5.19,0,0,1,24.52,99c0-1.06.15-1.54,1.06-4.57a3.37,3.37,0,0,0,.24-1.58,19.71,19.71,0,0,0-2.21,1.3c-.09,0-.67.48-.86.48A3.71,3.71,0,0,1,20.64,93c-.92-1.83-1.06-2-.87-3.75Zm2.3-15a5.86,5.86,0,0,0,1.3.68l3.89.28a11.15,11.15,0,0,1,2.25.15,6.2,6.2,0,0,0,1.15,1,3.09,3.09,0,0,1,1.78,3.08,1.86,1.86,0,0,1-.14.86c0,.1-.68.77-.72.87s-1,.24-1.25.28c-2.74,0-3.12-.24-4.9-1.48-.24-.15-1.34-.77-1.53-.92A5,5,0,0,1,22,75l0-.86Zm17.67,7.35c0,.09.48,1.15.53,1.34.38,0,2.11-.24,2.16-.24,1-.09,1.1-.09,1.1-.81v-1a3.56,3.56,0,0,0-1.82.24,7.08,7.08,0,0,1-2,.28Zm1.92,13.73c1-.15,2.73-.43,3.17-.53a6.91,6.91,0,0,0,2.59-.91,2.39,2.39,0,0,0,1.29-.2,2.82,2.82,0,0,1,.87,0c.33.53.53.58.86.63.05-1.35.05-1.49-.19-1.49a26.74,26.74,0,0,0-4.37.29l-3.93,1-.72.38v.39ZM42,98.88c.72,0,4.9-.48,5.14-.91a5.87,5.87,0,0,1,1.2-.24c.14,0,2,.62,2.16.67.19-.14.19-.19.19-.29,0-.28,0-1.53,0-1.92a12.82,12.82,0,0,0-2.69.53,35.49,35.49,0,0,1-3.6.62c-.29,0-1.63.29-1.73.29-.67,0-.86,0-.86.39a5.57,5.57,0,0,0,.1.77Zm.29,3.31,4.27-.62c.43,0,2.4-.19,2.78-.19a11.21,11.21,0,0,0,1.25-.24V99.89l-1.2.34-5,.67c-.24.19-.34.24-.53.24A7.78,7.78,0,0,1,42,100.8l-.1.15,0,1.15Zm10-21.69a1.2,1.2,0,0,0,.15-.63c-.48-.05-2.45.1-3,.15A6.94,6.94,0,0,0,49,81.65s.14.09.24.09a8.08,8.08,0,0,0,2.4-.28C51.74,81.31,52.17,80.64,52.22,80.5Z"/><path d="M64.41,114l.39-.19v-.24A21.37,21.37,0,0,0,68,109.39c.29-.57,1.73-2.88,1.92-3.4l1.49-4.13.58-1.44,1.1-4.52a7.38,7.38,0,0,1,.29-1.1,11.39,11.39,0,0,1,0-1.3,3.1,3.1,0,0,0-.19-.76l.09-.15-.14-.33a8.48,8.48,0,0,1-3-1.49,20.52,20.52,0,0,1-2-1.2,1.31,1.31,0,0,1-.67-.82,7.83,7.83,0,0,1,3.31-.43,4.38,4.38,0,0,0,.81,0l3.8-.67c.14,0,2.68-.19,3.12-.19a5.78,5.78,0,0,0,1.63-.34,2.44,2.44,0,0,1-.67-1.92c0-.1-.24-.67-.24-.77,0-1.1,0-1.25-.24-1.63v-.24l-.24-.1a1.58,1.58,0,0,1-.43.15,4.79,4.79,0,0,1-2.5-.77c-.19-.1-1.2-.48-1.3-.53A16.41,16.41,0,0,1,72.72,80c-.48-.58-.53-.63-.63-1a6.91,6.91,0,0,1,1-.1,20,20,0,0,0,2.11-.14l3.51-.29A59,59,0,0,0,85,77.62a.49.49,0,0,0,.09-.34,17.94,17.94,0,0,0-.48-1.92,9.81,9.81,0,0,1-2.4-3.12,6.06,6.06,0,0,1-.53-1.59l.15-.09c.09,0,.43-.1.53,0a8,8,0,0,0,.86.38c.34,0,1.87-.33,2.26-.33,1.44,0,1.82.24,3.21,1.24,0,0,.24.1,1.78.82,0,0,2.3,1.58,2.3,2.11,0,1-.09,1.44-.72,2,0,.19,0,.24.1.43a14.13,14.13,0,0,0,4.08-.52l.09-.34a3.64,3.64,0,0,1,1.44-.38,14.72,14.72,0,0,1,3.61.86c1,.72,1.58,1.2,1.58,2.35-.19.14-.72.91-.87,1a22.62,22.62,0,0,1-3.12.58c-.28,0-1.72-.1-2-.1a5.9,5.9,0,0,0-1.35.14c.1.2.72,1.06.82,1.2s.29,1,.29,1.16a1.1,1.1,0,0,1-.15.52c0,.44-.38.77-1,1.44a3.65,3.65,0,0,0-.29.39v.14c.38,0,2.16-.19,2.5-.19a30.83,30.83,0,0,0,4.12-.29,1.18,1.18,0,0,1,.53-.43l.05-.38c.43,0,2.4.33,2.64.33s3.17,1.2,3.36,1.25a3.77,3.77,0,0,1,1.2,2.06,8.77,8.77,0,0,1-.57,1.68c-.15.1-.73.58-.87.63a2.19,2.19,0,0,1-1.2.09l-3.89-.57a2.4,2.4,0,0,0-.62,0c-.34,0-2-.14-2.16-.14l-1.54.14a10,10,0,0,0-1.2-.05L93.26,90l-1.58.15c.19.14,2.45,1.48,2.45,1.53a2.47,2.47,0,0,1,1.1,1.83c0,.24-.48,1.25-.48,1.44a2.84,2.84,0,0,0,.1.81l.19-.09a3.41,3.41,0,0,0,.43.09c.1,0,1.73-.43,2-.53a1.48,1.48,0,0,0,1.1-.72c1,0,1.3.05,3.79.82a3.25,3.25,0,0,1,2.26,2.4l.19.15a3.37,3.37,0,0,1-1,1.1c-.2.1-1.49.48-1.54.53l-4.51.38a7.75,7.75,0,0,0-1.25.19,2.94,2.94,0,0,1-.34.1,1,1,0,0,1-.43-.14c-.19,0-.82.09-.86.09s-.15.1-.24.19,0,.24,0,.44-.09,1.15-.09,1.34a1.48,1.48,0,0,0,.57.1c.39,0,2.64-.44,2.79-.48a4.28,4.28,0,0,1,.72-.34,10,10,0,0,1,3.55,1.3,3.86,3.86,0,0,1,.86,1.39l-.33.86c-1,.67-1.1.77-1.44.82s-1.92.24-2.26.33l-3.69.63c-1,.14-1.06.19-1.06.53s0,1.34,0,1.58a8.76,8.76,0,0,0,2.4.1l4.61-.2.86-.14a.77.77,0,0,1,.68-.14,6.94,6.94,0,0,1,1.29-.53,26.29,26.29,0,0,1,4.18,2.21,20.84,20.84,0,0,1,1.34,1.63,1.29,1.29,0,0,1,.1.53c0,.14-.34.81-.38,1a4.49,4.49,0,0,1-.92,1.1l-.91.29h-.67l-3.84-.53s-1.83-.48-2-.53c-.57-.14-3-.48-3.5-.62l-3.94,0-2.35.14-3.41.38c-.43,0-4.66.82-5.28,1.06a5.69,5.69,0,0,1-2,.48,6.31,6.31,0,0,1-3.17-1.25l-2.06-1.53c-1.1-.82-1.34-1-1.39-1.78l.14,0v-.19c.67,0,.77,0,1,0s1.39.24,1.39.24c.15,0,.77-.09.92-.09l3.64-.39c.25,0,2.36-.19,2.79-.24s4.18-.53,4.46-.62c0-.34-.14-1.06-.19-1.49a4.5,4.5,0,0,0-1.63.05,7.27,7.27,0,0,1-1,.33,17.39,17.39,0,0,1-5.52-2.25l-.05-.19a4.23,4.23,0,0,1-1.2-.82,2.27,2.27,0,0,1,1.25-.24l6.38-1c.2,0,1.4-.19,1.64-.19a1.2,1.2,0,0,0,.48-.43l-.05-2.07c-.39,0-2.45.58-2.93.58a4.13,4.13,0,0,1-1.82-.58,18.81,18.81,0,0,1-1.73,1.63c-1.88.92-2.12,1-3,1.06a10.19,10.19,0,0,1-1.2.24,6.31,6.31,0,0,1-.91-.1,4.42,4.42,0,0,0-.82,1.64c-.14.43-1.39,2.44-1.58,2.88-.77,2-1.82,3.26-4.75,5.37-1.44,1-1.78,1.3-2.74,1.3a8.66,8.66,0,0,1-2.45-.53ZM77,103.2a9,9,0,0,1,.86-.62,13,13,0,0,0,1.78-3,25.28,25.28,0,0,0,.91-3.45c0-.24.29-1.49.29-1.59a2.46,2.46,0,0,0-.67-1.25c-.15-.38-.24-.52-.82-.76l-.09-.2.33-.19a4.91,4.91,0,0,0,1.78-.48,1.73,1.73,0,0,1,.62-.09,15.67,15.67,0,0,1,2.16.86,3.69,3.69,0,0,1,2.07,1.92c0,.1.28.34.28.39s.15.76.2.91a2.82,2.82,0,0,0-.15,1,4.27,4.27,0,0,1-.33.58c.14,0,.48,0,.57,0A8.9,8.9,0,0,1,88,97a6.21,6.21,0,0,0,.24-1.82c0-.29,0-3.32-.14-3.51a4,4,0,0,0-1.06-.91c-.29,0-1.68.19-2,.19a1.46,1.46,0,0,0-.53,0l-4.08.48a13.51,13.51,0,0,0-3.41.77c-.33.19-.38.24-.62.24l-.1.09c.24.2,1.44.82,1.59,1a5.71,5.71,0,0,1,1.3,2.83c0,.39-.1.58-.82,2.55-.05.19-.19,1.1-.24,1.25s-.39.57-.39.67-.38,1.34-.48,1.54-.28.52-.48.81Zm5.52-20.74a4.58,4.58,0,0,1,2.59,2.12,4.33,4.33,0,0,1,.24,2,12.65,12.65,0,0,0,3.41-.29c.14-.19.38-1.29.48-1.48.67-1.3,1.39-2.6,1.34-3.41l-1.34.14-4,.24a20.56,20.56,0,0,0-2.93.48Z"/></svg>