<svg id="图层_1" data-name="图层 1" xmlns="http://www.w3.org/2000/svg" viewBox="0 0 130 130"><defs><style>.cls-1,.cls-4{fill:#fff;}.cls-2{fill:#231815;}.cls-3,.cls-5{fill:none;}.cls-3,.cls-4,.cls-5{stroke:#000;stroke-width:1.2px;}.cls-3{stroke-linejoin:round;}.cls-4,.cls-5{stroke-miterlimit:10;}</style></defs><title>project_logo</title><path d="M58.27,112.42H52.83v2.94H58v3.88H52.83v3h5.44v3.88h-10V108.53h10Z"/><path d="M69.19,114.17h4.26v12H69.19v-1.33a4.43,4.43,0,0,1-3.67,1.71,6,6,0,0,1-2.41-.48,5.72,5.72,0,0,1-1.91-1.35,6,6,0,0,1-1.28-2,7,7,0,0,1-.46-2.55,6.65,6.65,0,0,1,.45-2.44,6.28,6.28,0,0,1,1.24-2,5.77,5.77,0,0,1,4.32-1.88,4.9,4.9,0,0,1,3.72,1.57Zm-5.33,6a2.82,2.82,0,0,0,.21,1.09,2.9,2.9,0,0,0,.57.88,2.77,2.77,0,0,0,3.89,0,3.08,3.08,0,0,0,.58-.87,2.5,2.5,0,0,0,.22-1,2.6,2.6,0,0,0-.22-1.07,3.08,3.08,0,0,0-.58-.87,2.63,2.63,0,0,0-.87-.59,2.75,2.75,0,0,0-1.06-.21,2.79,2.79,0,0,0-1.09.21,2.63,2.63,0,0,0-.87.59,2.88,2.88,0,0,0-.57.85A2.58,2.58,0,0,0,63.86,120.13Z"/><path d="M82.51,114.17h1.4v-3.6h4.23v3.6h2.41v3.53H88.14v8.46H83.91V117.7"/><path d="M41.65,126.43H35.94l-4.37-6.78v6.78H27V108.8h7.14a7,7,0,0,1,2.57.43,4.87,4.87,0,0,1,2.89,2.91,6.06,6.06,0,0,1,.36,2.1,5.25,5.25,0,0,1-1,3.27,4.92,4.92,0,0,1-2.87,1.69Z"/><path class="cls-1" d="M31.71,114.57c0,.75.35,1.13,1.06,1.13.38,0,.76-.47.86-.84h1.7a2.67,2.67,0,0,1-2.57,2.08,3.27,3.27,0,0,1-1.15-.19,2.5,2.5,0,0,1-.89-.54,2.44,2.44,0,0,1-.58-.83,2.85,2.85,0,0,1-.2-1.08,3.06,3.06,0,0,1,.19-1.12,2.6,2.6,0,0,1,.55-.85,2.4,2.4,0,0,1,.87-.53,3.19,3.19,0,0,1,1.15-.19,3.12,3.12,0,0,1,1.13.19,2.21,2.21,0,0,1,.85.54,2.36,2.36,0,0,1,.53.88,3.48,3.48,0,0,1,.19,1.16v.19Z"/><circle class="cls-2" cx="32.57" cy="113.35" r="0.74"/><path d="M41.3,115.26a2.71,2.71,0,0,1,.21-1.06,2.67,2.67,0,0,1,.59-.88,2.71,2.71,0,0,1,.87-.58,2.76,2.76,0,0,1,1.07-.21,2.71,2.71,0,0,1,1.06.21,2.62,2.62,0,0,1,1.46,1.46,2.71,2.71,0,0,1,.21,1.06,2.76,2.76,0,0,1-.21,1.07,2.71,2.71,0,0,1-.58.87,2.67,2.67,0,0,1-.88.59A2.71,2.71,0,0,1,44,118a2.72,2.72,0,0,1-2.74-2.74Zm0,7.88a2.71,2.71,0,0,1,.21-1.06,2.67,2.67,0,0,1,.59-.88,2.71,2.71,0,0,1,.87-.58,2.76,2.76,0,0,1,1.07-.21,2.71,2.71,0,0,1,1.06.21,2.62,2.62,0,0,1,1.46,1.46,2.71,2.71,0,0,1,.21,1.06,2.76,2.76,0,0,1-.21,1.07,2.71,2.71,0,0,1-.58.87,2.67,2.67,0,0,1-.88.59,2.71,2.71,0,0,1-1.06.21,2.72,2.72,0,0,1-2.74-2.74Z"/><path d="M75,114h4.23v2a4.93,4.93,0,0,1,1.66-1.65,4.2,4.2,0,0,1,2.3-.37,1.87,1.87,0,0,1,.44.06.85.85,0,0,1,.35.13l0,3.54a3.81,3.81,0,0,0-1.82-.26,2.71,2.71,0,0,0-2.21.88,3.87,3.87,0,0,0-.74,2.56V126H75Z"/><path d="M91.63,106.76h4.24v8.93a4.71,4.71,0,0,1,1.75-1.42,5.52,5.52,0,0,1,2.08-.36,4.48,4.48,0,0,1,3.43,1.25,4.79,4.79,0,0,1,1.15,3.38v7.62h-4.23v-6a6.56,6.56,0,0,0-.14-1.48,1.67,1.67,0,0,0-.47-.86,2,2,0,0,0-1.35-.49,2.08,2.08,0,0,0-1.65.64,2.68,2.68,0,0,0-.57,1.84v6.4H91.63Z"/><polygon class="cls-3" points="73.41 3.46 57.3 3.52 98.07 73.6 49.76 73.6 41.56 87.53 122.23 87.47 73.41 3.46"/><polygon class="cls-3" points="16.95 101.96 9.04 87.47 57.3 3.46 98.07 73.6 81.33 73.6 57.61 31.76 16.95 101.96"/><polygon class="cls-3" points="122.23 87.53 114.45 101.96 16.95 101.9 57.61 31.7 65.74 46.11 41.56 87.53 122.23 87.53"/><path class="cls-4" d="M80.56,77.21a20.22,20.22,0,1,1,3.68-21.52A20.21,20.21,0,0,1,80.56,77.21Z"/><ellipse class="cls-5" cx="60.53" cy="51.04" rx="4.81" ry="3.66" transform="translate(-13.51 22.97) rotate(-19.38)"/><ellipse class="cls-5" cx="61.31" cy="53.57" rx="12.46" ry="9.21" transform="translate(-14.3 23.37) rotate(-19.38)"/><path class="cls-5" d="M45.78,67.13s1.71,12.38,18.42,11.3c0,0,10.68-1.09,15.79-7.67a22.58,22.58,0,0,0,5-13"/><path class="cls-5" d="M68,83.55c-9-6.09-7.75-32.83-7.75-32.83s-7.06,10.41-5.72,23.49c0,0,.84,6.36,5.62,8.66"/><path class="cls-5" d="M45.42,64.61c1.33-10.88,14.81-13.89,14.81-13.89A310.89,310.89,0,0,1,75.1,81.39"/><path class="cls-5" d="M58.9,49.85s-6.49-2.24-8.19-.12"/><path class="cls-5" d="M62.34,43.51s-2,.33-2.08,5.82"/><path class="cls-5" d="M58.36,82.27S76.7,86.47,85,69.52c1.17-15.19-24.15-18.8-24.15-18.8"/><path class="cls-5" d="M59.35,51S42.12,65.05,52,78.28"/><path class="cls-5" d="M61.16,51.22s23.34,16.11,19.4,26"/><path class="cls-5" d="M62.47,49.64S76.33,47,83.6,54.33"/><path class="cls-5" d="M58.73,50.72s-8-.16-11.95,5.31c0,0-2.92,12.17,7.57,14.82S71.71,68,71.71,68s9.23-5.74,8.75-14.05c0,0,.07-4.62-2.36-6.28"/><path class="cls-5" d="M56.32,45.7A13.1,13.1,0,0,1,59,49.19"/><path class="cls-5" d="M67.44,43.26a15.37,15.37,0,0,0-6.59,6.59s8.37-6.55,15.86-3.2"/><ellipse class="cls-4" cx="60.34" cy="50.39" rx="2.26" ry="1.72" transform="translate(-13.3 22.87) rotate(-19.38)"/></svg>