<svg id="图层_1" data-name="图层 1" xmlns="http://www.w3.org/2000/svg" viewBox="0 0 130 130"><defs><style>.cls-1{fill:#b00058;}</style></defs><title>project_logo</title><path class="cls-1" d="M33.56,36.79A32,32,0,0,0,2.25,65.6a26.43,26.43,0,0,0,23.6,29,25,25,0,0,0,3.12.13,32,32,0,0,0,31.3-28.88A26.49,26.49,0,0,0,33.56,36.72M57.27,65.6A29,29,0,0,1,29,91.7,23.39,23.39,0,0,1,5.16,68.78a24.1,24.1,0,0,1,.13-2.94,29,29,0,0,1,28.27-26.1A23.38,23.38,0,0,1,57.39,62.66,24,24,0,0,1,57.27,65.6Z"/><path class="cls-1" d="M101.15,36.79A32.05,32.05,0,0,0,69.84,65.6a26.45,26.45,0,0,0,23.6,29,25.13,25.13,0,0,0,3.13.13,32,32,0,0,0,31.29-28.88,26.49,26.49,0,0,0-26.71-29.14M124.86,65.6A29,29,0,0,1,96.59,91.7,23.39,23.39,0,0,1,72.75,68.78a24.1,24.1,0,0,1,.13-2.94,29,29,0,0,1,28.27-26.1,23.69,23.69,0,0,1,17.64,7.53A23.93,23.93,0,0,1,124.86,65.6Z"/><path class="cls-1" d="M31.71,72.13a1,1,0,0,1,0-1.35L33,69.56a1.53,1.53,0,0,0,.59-1.67A1.49,1.49,0,0,0,32.06,67H28.3a.78.78,0,0,0,0,1.56h3.48l-1.11,1a2.5,2.5,0,0,0-.16,3.53h0l3.17,3.46a2.67,2.67,0,0,1,.59,2.17,4.56,4.56,0,0,1-6.83,3,3.17,3.17,0,0,0,2.89-2.87,2.64,2.64,0,0,0-.71-2.17,2.7,2.7,0,0,0-2.05-.89,3.22,3.22,0,0,0-3.09,2.78,4.52,4.52,0,0,0,1.22,3.5,5.58,5.58,0,0,0,4.11,1.72,6,6,0,0,0,6.07-5.09,4.13,4.13,0,0,0-1-3.24l-3.18-3.41m-4.06,5.22a1.18,1.18,0,0,1,.91.39,1.15,1.15,0,0,1,.3,1,1.64,1.64,0,0,1-1.58,1.48,1.2,1.2,0,0,1-.92-.39,1.12,1.12,0,0,1-.3-.67v-.29a1.66,1.66,0,0,1,1.59-1.52Z"/><path class="cls-1" d="M34.26,59.08l.37-4.35h.93a.76.76,0,0,0,.76-.76.79.79,0,0,0-.76-.79h-.8L35,50.6h.93a.79.79,0,0,0,.76-.79.78.78,0,0,0-.76-.78h-.8v-.26a.8.8,0,0,0-.72-.83.78.78,0,0,0-.83.69h0V49H31a.79.79,0,0,0-.77.78.79.79,0,0,0,.77.79h2.43l-.22,2.58H30.65a.79.79,0,0,0-.76.79.76.76,0,0,0,.76.76h2.43l-.24,2.89a3.64,3.64,0,0,0-2.47-.93,4.34,4.34,0,0,0-4.35,4A3.78,3.78,0,0,0,27,63.6a3.88,3.88,0,0,0,2.83,1.2A4.36,4.36,0,0,0,34,61.25a23,23,0,0,1,1.65,2.9.71.71,0,0,0,.7.47.51.51,0,0,0,.3,0,.76.76,0,0,0,.42-1h0a20.55,20.55,0,0,0-2.8-4.56m-4.35,4.08a2.18,2.18,0,0,1-1.68-.71,2.33,2.33,0,0,1-.56-1.72,2.85,2.85,0,0,1,2.78-2.57,2.17,2.17,0,0,1,1.63.68h0a7,7,0,0,1,.68.76v1a2.84,2.84,0,0,1-3,2.48Z"/><path class="cls-1" d="M102.48,75.54l-3.17-3.41a.94.94,0,0,1,0-1.35l1.3-1.22c.8-.74.72-1.37.59-1.67A1.49,1.49,0,0,0,99.63,67H95.89a.78.78,0,0,0-.78.78h0a.78.78,0,0,0,.78.78h3.48l-1.13,1a2.54,2.54,0,0,0-.15,3.54l3.17,3.46a2.57,2.57,0,0,1,.59,2.17,4.35,4.35,0,0,1-4.5,3.66A4.2,4.2,0,0,1,95,81.8a3.21,3.21,0,0,0,2.9-2.87,2.77,2.77,0,0,0-2.49-3h-.3a3.21,3.21,0,0,0-3.06,2.74,4.46,4.46,0,0,0,1.19,3.5,5.57,5.57,0,0,0,4.13,1.72,5.93,5.93,0,0,0,6-5.09,4.2,4.2,0,0,0-1-3.24h0M95.22,77.3a1.25,1.25,0,0,1,.93.39,1.39,1.39,0,0,1,.31,1,1.66,1.66,0,0,1-1.59,1.48,1.33,1.33,0,0,1-.94-.39,1.31,1.31,0,0,1-.3-.68v-.28A1.64,1.64,0,0,1,95.22,77.3Z"/><path class="cls-1" d="M101.91,59.08l.37-4.35h.92A.76.76,0,0,0,104,54v0a.79.79,0,0,0-.78-.79h-.81l.18-2.8h.91a.78.78,0,0,0,.78-.78h0a.78.78,0,0,0-.78-.79h-.8v-.26a.79.79,0,0,0-1.55-.13v.39H98.57a.79.79,0,0,0-.79.79h0a.78.78,0,0,0,.79.78H101L100.78,53H98.22a.79.79,0,0,0-.79.78h0a.77.77,0,0,0,.77.76h2.45l-.24,2.89a3.69,3.69,0,0,0-2.5-.93,4.35,4.35,0,0,0-4.35,4,3.74,3.74,0,0,0,3.36,4.09,3,3,0,0,0,.43,0,4.34,4.34,0,0,0,4.24-3.33,19.22,19.22,0,0,1,1.63,2.9.78.78,0,0,0,.72.47h.3a.76.76,0,0,0,.42-1h0a20.83,20.83,0,0,0-2.75-4.54m-4.48,4.09A2.18,2.18,0,0,1,95.24,61a2.64,2.64,0,0,1,0-.28A2.83,2.83,0,0,1,98,58.16a2.17,2.17,0,0,1,1.65.68h0c.24.24.46.5.68.76v1a2.85,2.85,0,0,1-3,2.46Z"/></svg>