<svg id="图层_1" data-name="图层 1" xmlns="http://www.w3.org/2000/svg" viewBox="0 0 130 130"><title>project_logo</title><path d="M51,51.71a11.21,11.21,0,1,1,0,22.42,14.15,14.15,0,0,1-4.43-1,.6.6,0,0,0-.89.59V78.2a1,1,0,0,1-1,1h-4a1,1,0,0,1-1-1V60.54a4,4,0,0,0-.5-1.78l-2.51-4.1a.93.93,0,0,1,.33-1.3l3.67-2.15a1,1,0,0,1,1.33.34l1.21,2a1,1,0,0,0,1.32.32S48.12,51.71,51,51.71ZM45.67,62.94A5.32,5.32,0,1,0,51,57.63,5.28,5.28,0,0,0,45.67,62.94Z"/><path d="M73.41,72.51a1,1,0,0,0,1,1h9.56a1,1,0,0,1,1,1v4a1,1,0,0,1-1,1H68.45a1,1,0,0,1-1-1V51.69a1,1,0,0,1,1-1h4a1,1,0,0,1,1,1Z"/><path d="M88.42,57.6a1,1,0,0,0-1-1H77.91a1,1,0,0,1-1-1v-4a1,1,0,0,1,1-1H93.38a1,1,0,0,1,1,1V78.42a1,1,0,0,1-1,1h-4a1,1,0,0,1-1-1Z"/><path d="M35.52,78.57c.27.45,0,.83-.48.83H3.18c-.52,0-.74-.37-.48-.83L18.63,51a.51.51,0,0,1,1,0ZM12.93,72.66c-.26.46,0,.83.48.83H24.82c.52,0,.74-.37.48-.83l-5.71-9.88a.51.51,0,0,0-1,0Z"/><path d="M113.89,78.82A14.11,14.11,0,1,1,128,64.71,14.13,14.13,0,0,1,113.89,78.82Zm0-22.31a8.21,8.21,0,1,0,8.21,8.2A8.22,8.22,0,0,0,113.89,56.51Z"/></svg>