<svg id="图层_1" data-name="图层 1" xmlns="http://www.w3.org/2000/svg" viewBox="0 0 130 130"><title>project_logo</title><path d="M68.38,8A56.73,56.73,0,0,0,24,29.34l7.38,6a47.37,47.37,0,1,1,37,76.93H68v9.5h.38A56.87,56.87,0,0,0,68.38,8Z"/><rect x="36.31" y="63.31" width="65" height="3"/><path d="M62.31,39.22A4.93,4.93,0,0,0,62,37.37a3.84,3.84,0,0,0-.91-1.32,3.67,3.67,0,0,0-1.34-.78A5.38,5.38,0,0,0,58.05,35a5.5,5.5,0,0,0-1.51.21,7.84,7.84,0,0,0-1.45.58,10.13,10.13,0,0,0-1.35.89,10.91,10.91,0,0,0-1.22,1.14V35A8.07,8.07,0,0,1,55,33.35a8.61,8.61,0,0,1,3.36-.58,8,8,0,0,1,2.63.42,5.84,5.84,0,0,1,2.09,1.2,5.36,5.36,0,0,1,1.4,2A6.52,6.52,0,0,1,65,39a9.16,9.16,0,0,1-.32,2.49,7.44,7.44,0,0,1-1,2.09,10.24,10.24,0,0,1-1.6,1.89,23.1,23.1,0,0,1-2.27,1.83c-1.09.78-2,1.44-2.69,2a11.79,11.79,0,0,0-1.67,1.54,4.27,4.27,0,0,0-.87,1.44,4.93,4.93,0,0,0-.25,1.65h11.5v2.37H51.62V55.12a9.81,9.81,0,0,1,.32-2.61A6.82,6.82,0,0,1,53,50.37a11.73,11.73,0,0,1,1.94-2c.8-.68,1.78-1.44,2.94-2.29A17.65,17.65,0,0,0,60,44.33a8.6,8.6,0,0,0,1.36-1.65A5.8,5.8,0,0,0,62.09,41,7.52,7.52,0,0,0,62.31,39.22Z"/><path d="M74.26,44.15v-.06q-4.16-1.94-4.16-5.61A5.12,5.12,0,0,1,72,34.38a7.31,7.31,0,0,1,4.89-1.61,6.57,6.57,0,0,1,4.45,1.5,4.86,4.86,0,0,1,1.74,3.85q0,3.84-4.29,6v.06c3.38,1.2,5.07,3.29,5.07,6.25A5.59,5.59,0,0,1,81.8,55a8.76,8.76,0,0,1-5.73,1.69A7.15,7.15,0,0,1,71.18,55a5.53,5.53,0,0,1-1.91-4.35Q69.27,46.18,74.26,44.15Zm2.13,1.26C73.45,46.58,72,48.28,72,50.5a3.59,3.59,0,0,0,1.28,2.83,5,5,0,0,0,3.38,1.1,4.79,4.79,0,0,0,3.26-1.09,3.44,3.44,0,0,0,1.27-2.74Q81.16,47.12,76.39,45.41Zm4-7a3.23,3.23,0,0,0-1-2.52A3.86,3.86,0,0,0,76.66,35a4.06,4.06,0,0,0-2.73,1,3.07,3.07,0,0,0-1.12,2.44q0,3,3.75,4.55C79.11,41.91,80.38,40.4,80.38,38.45Z"/><path d="M63.56,75.16V90.42h3v2.42h-3v5.43H61V92.84H50.09V90.55q1.52-1.71,3.06-3.65c1-1.29,2-2.61,3-3.94s1.81-2.66,2.61-4a35.61,35.61,0,0,0,2-3.81ZM53.07,90.42H61V79.11c-.8,1.41-1.57,2.66-2.29,3.77s-1.4,2.11-2,3-1.27,1.72-1.86,2.45Z"/><path d="M81.35,75.16V90.42h3v2.42h-3v5.43H78.74V92.84H67.88V90.55q1.52-1.71,3.06-3.65c1-1.29,2-2.61,3-3.94s1.81-2.66,2.61-4a35.61,35.61,0,0,0,2-3.81ZM70.86,90.42h7.88V79.11c-.8,1.41-1.57,2.66-2.29,3.77s-1.4,2.11-2,3-1.27,1.72-1.86,2.45Z"/></svg>