<svg id="图层_1" data-name="图层 1" xmlns="http://www.w3.org/2000/svg" viewBox="0 0 130 130"><defs><style>.cls-1{fill:#e62320;}</style></defs><title>project_logo</title><path d="M8.3,12a5.24,5.24,0,0,1,3.18,1.22c.6.59.67,1.11,1.08,2.92C13.78,14.55,15.67,12,20.22,12c5.29,0,9.1,3.88,9.1,10.06,0,8.48-5.62,11.4-9.44,11.4A10.45,10.45,0,0,1,13,30.79c-.11,6-.85,8-2.77,8-2.08,0-2.82-3.52-2.82-5.22,0-.56.08-.82.78-3.22.11-.41.19-4.81.19-5.74,0-9.43-.93-10.47-2.74-11.13A3.22,3.22,0,0,1,8.3,12Zm4.81,15.28a5.85,5.85,0,0,0,5.15,3.07c3.77,0,6-3.18,6-7.81,0-6-3.07-7.18-5-7.18-2.89,0-5.26,2.26-6.4,5C13,21.84,13,25,13.11,27.28Z"/><path d="M44.34,30.61A10.06,10.06,0,0,0,50,28.94c.37-.26,1.93-1.74,2.34-1.74a.69.69,0,0,1,.7.63c0,1-3.92,5.63-10.07,5.63C37.5,33.46,31.8,30.17,31.8,23,31.8,17.29,35.68,12,43.42,12c6.95,0,8.8,4.44,8.8,6.8,0,4.52-5,6.26-8.77,6.26a11.93,11.93,0,0,1-6.55-1.85A7.05,7.05,0,0,0,44.34,30.61Zm-3.22-8.36c.63,0,6.88,0,6.88-4.37,0-1.89-1.62-3.4-4.14-3.4a6.91,6.91,0,0,0-5,2.1c-1.15,1.34-1.3,2.22-1.67,4.56A7.48,7.48,0,0,0,41.12,22.25Z"/><path d="M70.35,16.51c0-1.66-2.44-1.66-2.77-1.66-4.85,0-7.15,3.88-7.15,8.58,0,2.44.34,6.7,4.33,6.7a8.91,8.91,0,0,0,5.18-2c0-1.19,0-5.67,1.11-7.29a4,4,0,0,1,3.15-1.67,1.73,1.73,0,0,1,1.78,2,6.88,6.88,0,0,1-.82,3,7.3,7.3,0,0,0-.22,2c0,3.93.41,4.52,2,4.52.22,0,1.26-.41,1.48-.41a.48.48,0,0,1,.48.48c0,1-2.92,2.78-5.11,2.78a3.27,3.27,0,0,1-3.25-2.59c-2.63,1.85-4.63,2.59-6.74,2.59-4.55,0-8.36-3.63-8.36-9.66C55.4,18.47,59,12,67.69,12c5.33,0,8.43,1.92,8.43,4.21s-3,2.19-3.44,2.19-2.55,0-3.22-.89A1.1,1.1,0,0,0,70.35,16.51Z"/><path d="M96.1,16.92c0-2-1.7-2.48-3.44-2.48-7.18,0-7.18,7-7.18,8.32,0,4.33,1.67,7.48,6.7,7.48a12.31,12.31,0,0,0,7.51-2.48,5.39,5.39,0,0,1,1.41-.85.48.48,0,0,1,.52.48c0,.78-3.48,6.07-11.22,6.07-5.55,0-10-3.29-10-10.18,0-8.32,6.4-11.28,12-11.28,1.18,0,8.62,0,8.62,5.29a3.21,3.21,0,0,1-3.22,3.33,3.79,3.79,0,0,1-2.85-1.45C96,18.06,96.1,17.58,96.1,16.92Z"/><path d="M116.3,30.61a10.1,10.1,0,0,0,5.63-1.67c.37-.26,1.92-1.74,2.33-1.74a.69.69,0,0,1,.7.63c0,1-3.92,5.63-10.06,5.63-5.44,0-11.14-3.29-11.14-10.51,0-5.66,3.89-10.95,11.62-10.95,7,0,8.81,4.44,8.81,6.8,0,4.52-5,6.26-8.77,6.26a11.9,11.9,0,0,1-6.55-1.85A7.05,7.05,0,0,0,116.3,30.61Zm-3.22-8.36c.63,0,6.89,0,6.89-4.37,0-1.89-1.63-3.4-4.15-3.4a6.92,6.92,0,0,0-5,2.1c-1.15,1.34-1.29,2.22-1.66,4.56A7.45,7.45,0,0,0,113.08,22.25Z"/><path d="M9.49,56.4c1.07,0,3.29.48,3.66,2.07a11.42,11.42,0,0,1,.26,3c2-2.92,5.22-5.06,8.66-5.06a5.08,5.08,0,0,1,4.44,2.36,7.58,7.58,0,0,1,.89,4.41c0,1.18-.34,6.4-.34,7.47,0,1.82,0,2.81,1.19,2.81A2.64,2.64,0,0,0,29.54,73c.45-.37.52-.41.67-.41s.4.11.4.52-1.73,4.74-4.84,4.74c-3.56,0-3.56-3.89-3.56-5.07,0-1.45.41-7.81.41-9.1s0-3.59-2.51-3.59c-2,0-4.82,2.07-6.48,6.21-.07,1.93-.22,5.66-.22,7.48,0,4-2.3,4.07-2.56,4.07C9.12,77.86,8.3,76,8.3,74.27a10.37,10.37,0,0,1,.41-2.85C8.82,71,9,66.28,9,65.61c0-6.22-.44-7.18-2.77-7.7A3.58,3.58,0,0,1,9.49,56.4Z"/><path d="M34.65,56.4c2.62,0,4.58,1.59,4.58,2.85,0,.4-.4,2.1-.44,2.47-.11.89-.15,6.33-.15,6.48,0,.93.15,4.92.15,5.74,0,2.77-2,3.92-2.92,3.92-1.45,0-2.48-1.93-2.48-3.56,0-.51.63-2.66.7-3.1a37.23,37.23,0,0,0,.15-4c0-1.52,0-7.58-.56-8.32A2.63,2.63,0,0,0,31.8,58,3.43,3.43,0,0,1,34.65,56.4Zm-2.08-7.92c.23,0,1,.77,1.15.89a5.94,5.94,0,0,0,3.29,1c.23,0,1.15-.11,1.34-.11.77,0,1.48,1.44,1.48,2.7a1.41,1.41,0,0,1-1.6,1.56c-3.47,0-6-2.41-6-5.44C32.2,48.92,32.28,48.48,32.57,48.48Z"/><path d="M45.3,56.4a5.24,5.24,0,0,1,3.18,1.22c.6.59.67,1.11,1.08,2.92,1.22-1.59,3.1-4.14,7.66-4.14,5.29,0,9.1,3.88,9.1,10.06,0,8.47-5.63,11.4-9.44,11.4A10.45,10.45,0,0,1,50,75.19c-.11,6-.85,8-2.78,8S44.41,79.67,44.41,78c0-.56.08-.82.78-3.22.11-.41.19-4.81.19-5.74,0-9.43-.93-10.47-2.74-11.13A3.22,3.22,0,0,1,45.3,56.4Zm4.81,15.28a5.83,5.83,0,0,0,5.14,3.07c3.78,0,6-3.18,6-7.81,0-6-3.08-7.18-5-7.18-2.89,0-5.26,2.26-6.4,5C50,66.24,50,69.42,50.11,71.68Z"/><path d="M70.65,56.4a5.26,5.26,0,0,1,3.18,1.22c.59.59.66,1.11,1.07,2.92C76.12,59,78,56.4,82.56,56.4c5.29,0,9.1,3.88,9.1,10.06,0,8.47-5.62,11.4-9.43,11.4a10.48,10.48,0,0,1-6.89-2.67c-.11,6-.85,8-2.77,8S69.76,79.67,69.76,78c0-.56.07-.82.77-3.22.12-.41.19-4.81.19-5.74,0-9.43-.93-10.47-2.74-11.13A3.25,3.25,0,0,1,70.65,56.4Zm4.81,15.28a5.83,5.83,0,0,0,5.14,3.07c3.77,0,6-3.18,6-7.81,0-6-3.07-7.18-5-7.18-2.88,0-5.25,2.26-6.4,5C75.31,66.24,75.38,69.42,75.46,71.68Z"/><path d="M100.1,59.47c0-2.08,4.11-3.07,6.21-3.07A10.73,10.73,0,0,1,117.3,67c0,5.77-4.29,10.88-11.76,10.88S94,72.71,94,67.46c0-4.7,3.07-8,4.81-8a2,2,0,0,1,1.37.48C100.17,59.76,100.1,59.62,100.1,59.47Zm1.14,2.36a1.31,1.31,0,0,1-.22.75c-1.44,1.77-2.29,2.81-2.29,5,0,1.08.55,6.26,7.21,6.26,4.22,0,7.59-3,7.59-6.92a6.89,6.89,0,0,0-7.11-6.81,8.34,8.34,0,0,0-2.07.22c-1.77.7-2,.78-2.62.78a2.22,2.22,0,0,1-.78-.15A1.78,1.78,0,0,1,101.24,61.83Z"/><path d="M9.49,100.8c1.07,0,3.29.48,3.66,2.07a11.46,11.46,0,0,1,.26,3c2-2.93,5.22-5.07,8.66-5.07a5.08,5.08,0,0,1,4.44,2.36,7.6,7.6,0,0,1,.89,4.41c0,1.18-.34,6.4-.34,7.47,0,1.82,0,2.81,1.19,2.81a2.64,2.64,0,0,0,1.29-.44c.45-.37.52-.41.67-.41s.4.11.4.52-1.73,4.74-4.84,4.74c-3.56,0-3.56-3.89-3.56-5.07,0-1.44.41-7.81.41-9.1s0-3.59-2.51-3.59c-2,0-4.82,2.07-6.48,6.21-.07,1.93-.22,5.66-.22,7.48,0,4-2.3,4.07-2.56,4.07-1.73,0-2.55-1.89-2.55-3.59a10.37,10.37,0,0,1,.41-2.85c.11-.41.29-5.14.29-5.81,0-6.22-.44-7.18-2.77-7.7A3.58,3.58,0,0,1,9.49,100.8Z"/><circle class="cls-1" cx="82.16" cy="84.72" r="14.84"/></svg>