<svg id="图层_1" data-name="图层 1" xmlns="http://www.w3.org/2000/svg" viewBox="0 0 130 130"><defs><style>.cls-1{fill:#0067b4;}</style></defs><title>project_logo</title><path class="cls-1" d="M114.11,65.93c.32.79,3.25,8.94,3.25,8.94a2.92,2.92,0,0,1-.68,1.68,66.86,66.86,0,0,0-4.11,6.24,13.82,13.82,0,0,0-.51,4c0,1.35.68,25.11.68,25.11s.35.85-1,1-36.08,8.42-38.65,9.1S58.36,125.61,57,125.78s-6.85,1-7.87,0-7-16.86-7.18-21.07-1.88-36.25-3.42-43.33S36.13,47.9,32,38.79s-4.45-13.65-4.79-18.37,0-11,0-12,.34-1.52,2.05-2,5.9-1.6,5.9-1.6C38.1,3.82,43.74,1,46.31,3s6.75,8.35,9.49,11,7.52,6.07,17.44,2.2,14.37.67,15.9,2.69,7.7,12.31,9.07,15C98.21,33.91,111.22,58.87,114.11,65.93Z"/></svg>