<?xml version="1.0" encoding="utf-8"?>
<!-- Generator: Adobe Illustrator 23.0.2, SVG Export Plug-In . SVG Version: 6.00 Build 0)  -->
<svg version="1.1" id="Layer_1" xmlns="http://www.w3.org/2000/svg" xmlns:xlink="http://www.w3.org/1999/xlink" x="0px" y="0px"
	 viewBox="0 0 91.9 91.9" style="enable-background:new 0 0 91.9 91.9;" xml:space="preserve">
<style type="text/css">
	.st0{fill:#8C8C8C;}
</style>
<title>Git-Icon-1788C</title>
<path class="st0" d="M90.2,41.8L50,1.7c-2.3-2.3-6.1-2.3-8.4,0l-8.3,8.3l10.6,10.6c3.6-1.3,7.6,0.6,8.9,4.3c0.5,1.5,0.5,3.2,0,4.7
	l10.1,10.1c3.7-1.3,7.6,0.7,8.9,4.3c1.3,3.7-0.7,7.6-4.3,8.9c-3.7,1.3-7.6-0.7-8.9-4.3c-0.6-1.6-0.5-3.3,0.1-4.9l-9.5-9.5v25
	c0.7,0.3,1.3,0.8,1.9,1.3c2.7,2.8,2.7,7.2-0.1,9.9s-7.2,2.7-9.9-0.1c-2.7-2.7-2.7-7.1,0-9.8c0.7-0.7,1.4-1.2,2.3-1.5V33.8
	c-3.6-1.4-5.3-5.5-3.9-9.1c0,0,0-0.1,0.1-0.1L29.2,14.1L1.7,41.7c-2.3,2.3-2.3,6.1,0,8.4l40.1,40.1c2.3,2.3,6.1,2.3,8.4,0l39.9-39.9
	C92.5,47.9,92.5,44.2,90.2,41.8z"/>
</svg>
