<?xml version="1.0" encoding="utf-8"?>
<!-- Generator: Adobe Illustrator 23.0.2, SVG Export Plug-In . SVG Version: 6.00 Build 0)  -->
<svg version="1.1" xmlns="http://www.w3.org/2000/svg" xmlns:xlink="http://www.w3.org/1999/xlink" x="0px" y="0px"
	 viewBox="0 0 561.6 132.7" style="enable-background:new 0 0 561.6 132.7;" xml:space="preserve">
<style type="text/css">
	.st0{fill:#0067B4;}
	.st1{fill:#E72520;}
</style>
<g id="图层_2">
</g>
<g id="图层_1">
	<g>
		<g id="レイヤー_1">
			<g>
				<g>
					<path class="st0" d="M92.5,88.3c-5,7.7-14.2,13.7-29.6,13.7c-14.3,0-35.8-9-35.8-47.7C27,29.8,38.6,8,64.3,8
						c18.8,0,26.8,11.7,26.8,11.7l-1.7,1.2c-6-6.9-14.7-10.8-23.8-10.6C47.4,10.3,46.3,26,46.3,37v14.3h29.4l-0.1,2.3H53.3
						c-3.8,0-7,3.1-7,7v11.6c0,15.1,3,27.4,19.1,27.4c13.3,0,20.6-5.5,25.5-12.5L92.5,88.3z"/>
					<g>
						<circle class="st1" cx="48.5" cy="41.8" r="8.7"/>
						<circle class="st1" cx="72.8" cy="66.1" r="8.7"/>
					</g>
				</g>
				<circle class="st1" cx="10.6" cy="90.4" r="8.7"/>
				<g>
					<path class="st0" d="M168,95.2c-1.2,3.1-3.9,6.1-9.7,6.1c-9.7,0-13-5.9-13.9-11.5c-2.6,6.9-9.3,11.5-16.8,11.5
						c-17.9,0-25-12.9-25-27.1V33.9h-5.5V32h17.1v43.3c0,10.4,2.3,24,13.7,24c10.7,0,16.5-9.2,16.5-19.3v-46h-5.5V32h17.3v60.6
						c0,5.4,2.4,6.4,4.5,6.4c2.4,0,4.5-1.5,5.3-3.7L168,95.2z"/>
					<g>
						<circle class="st1" cx="130.6" cy="41.8" r="8.7"/>
						<circle class="st1" cx="130.6" cy="90.4" r="8.7"/>
						<circle class="st1" cx="154.9" cy="90.4" r="8.7"/>
					</g>
				</g>
				<g>
					<path class="st0" d="M249.2,94.6c-2.7,5.4-5.8,7-10.8,7c-6.7,0-13.8-3.1-17.8-17.3c-1.3-4.7-2.8-9.4-4.6-13.9
						c-3.1-6.8-7.5-9-10.4-9c-1.5,0-3,0.6-4,1.7l-2.6,2.6c-0.6,0.6-0.9,1.3-0.9,3.5v29.1h5.5v1.8h-22.7v-1.8h5.5V3h-5.5V1H198v62.4
						l23.3-23.2c2.6-2.6,3.9-4.4,3.9-5.2c0-1-1.4-1.2-1.7-1.2h-3V32h17.7v1.9c-4.8,0-7.9,0.3-14,6.4l-19.5,19.5
						c2-0.6,4.2-0.9,6.3-0.8c7.1,0,16.2,3.5,19.7,15.3c1.5,5.2,2.7,11.7,4.6,18.8c0.9,3.3,2.7,6.1,5.5,6.1c3,0,4.8-2.4,6.1-4.6
						L249.2,94.6z"/>
					<g>
						<circle class="st1" cx="199.2" cy="41.8" r="8.7"/>
						<circle class="st1" cx="199.2" cy="90.4" r="8.7"/>
					</g>
				</g>
				<g>
					<path class="st0" d="M326.2,95.2c-1.3,3-3.9,6.1-9.7,6.1c-9.7,0-12.6-5.5-13.5-11.1c-3.3,6.9-10.3,11.2-17.9,11.1
						c-10,0-16.9-3.5-21.9-9.3c-5.5-6.3-7.7-15.8-7.7-26.2c0-9,1.4-17,5.2-23.1c4.9-8,12.8-12.8,24.7-12.8c4.8,0,9.5,1.2,13.8,3.4
						c11.1,5.9,15.3,14.7,15.3,30.5v28.5c0,5,2.3,6.6,4.4,6.6c2.4,0,4.4-1.5,5.2-3.7L326.2,95.2z M302.8,58.8
						c0-17-3.3-26.7-17.5-26.7c-13.3,0-16.6,9-16.6,20.4v19.3c0,18.6,3.9,27.3,16.5,27.3c10.8,0,17.7-8.4,17.7-16L302.8,58.8z"/>
					<circle class="st1" cx="285.6" cy="41.8" r="8.7"/>
				</g>
				<g>
					<path class="st0" d="M361.2,100h-22.7v-1.9h5.5V33.9h-5.5V32h17.1v17.5c4.1-11.2,11-19.6,20.4-19.6c6.1,0,9,3.9,9,7.5
						c0,3.9-2.6,7-6.6,7c-3.6,0-6.3-2.4-6.3-5.8c0-2.1,1-3,1-4.5c0-0.8-0.6-1.2-1.4-1.2c-4.6,0-10.6,7.7-13.1,14.4
						c-2,4.8-3,10-3,15.2v35.6h5.5V100z"/>
					<g>
						<circle class="st1" cx="357.4" cy="41.8" r="8.7"/>
						<circle class="st1" cx="357.4" cy="66.1" r="8.7"/>
						<circle class="st1" cx="357.4" cy="90.4" r="8.7"/>
						<circle class="st1" cx="381.7" cy="66.1" r="8.7"/>
					</g>
				</g>
				<g>
					<path class="st0" d="M405,30.5h-5.4v-1.9h17.1v47.7c0,11.2,4.4,20,14,20c12.1,0,16.2-11.7,16.2-19.2V30.5h-5.5v-1.9h17.1v78.3
						c0,20.1-10.7,24.7-20.7,24.7c-10.7,0-18.4-5.8-18.4-13.5c-0.1-3.6,2.7-6.6,6.2-6.7c0.1,0,0.2,0,0.3,0c3.2-0.1,5.8,2.4,5.9,5.6
						c0,0,0,0,0,0.1c0,4.8-4.9,5-4.9,8c0,2.2,4.8,4.5,8.9,4.5c8.6,0,11.1-7,11.1-16V87.1c-2.7,6.3-8.5,11.5-17.8,11.5
						c-16.1,0-24.2-12.1-24.2-27.2L405,30.5z"/>
					<g>
						<circle class="st1" cx="437.3" cy="38.4" r="8.7"/>
						<circle class="st1" cx="437.3" cy="87" r="8.7"/>
						<circle class="st1" cx="461.6" cy="38.4" r="8.7"/>
						<circle class="st1" cx="461.6" cy="62.7" r="8.7"/>
						<circle class="st1" cx="461.6" cy="87" r="8.7"/>
					</g>
				</g>
				<g>
					<path class="st0" d="M560,95.2c-1.3,3-3.9,6.1-9.7,6.1c-9.7,0-12.6-5.5-13.5-11.1c-3.3,6.9-10.3,11.2-17.9,11.1
						c-10,0-16.9-3.5-21.9-9.3c-5.5-6.3-7.7-15.8-7.7-26.2c0-9,1.4-17,5.2-23.1c4.9-8,12.8-12.8,24.7-12.8c4.8,0,9.5,1.2,13.8,3.3
						c11.1,5.9,15.3,14.7,15.3,30.5v28.5c0,5,2.3,6.6,4.4,6.6c2.4,0,4.4-1.5,5.2-3.7L560,95.2z M536.5,58.8c0-17-3.3-26.7-17.5-26.7
						c-13.3,0-16.6,9-16.6,20.4v19.3c0,18.6,3.9,27.3,16.5,27.3c10.8,0,17.7-8.4,17.7-16L536.5,58.8z"/>
					<circle class="st1" cx="519.1" cy="41.8" r="8.7"/>
				</g>
			</g>
		</g>
	</g>
</g>
</svg>
