<svg id="图层_1" data-name="图层 1" xmlns="http://www.w3.org/2000/svg" viewBox="0 0 90.56 93.94"><defs><style>.cls-1{fill:#0067b4;}.cls-2{fill:#e72520;}</style></defs><title>small_logo</title><path class="cls-1" d="M95.47,83.27C90.45,91,81.3,96.93,65.84,96.93c-14.31,0-35.82-9-35.82-47.67C30,24.78,41.61,3,67.25,3c18.82,0,26.8,11.73,26.8,11.73l-1.67,1.16A30.76,30.76,0,0,0,68.54,5.32C50.37,5.32,49.34,21,49.34,32V46.3H78.72l-.13,2.32H56.3a7,7,0,0,0-7,7v11.6c0,15.07,3,27.44,19.07,27.44,13.28,0,20.62-5.54,25.52-12.5Z" transform="translate(-4.91 -2.99)"/><circle class="cls-2" cx="46.59" cy="33.76" r="8.69"/><circle class="cls-2" cx="70.92" cy="58.1" r="8.69"/><circle class="cls-2" cx="8.69" cy="82.43" r="8.69"/></svg>